<svg width="26" height="22" viewBox="0 0 26 22" fill="none" xmlns="http://www.w3.org/2000/svg">
<path d="M23.8197 2.68082C22.0747 0.935795 19.4466 0.543696 16.7602 1.14156C14.064 1.7416 11.1919 3.35377 8.7612 5.80863C7.55711 6.98154 6.51815 8.3105 5.67138 9.75871L5.27764 8.1887C5.17688 7.78693 4.76949 7.54292 4.36772 7.64368C3.96595 7.74444 3.72193 8.15182 3.8227 8.55359L4.6127 11.7036C4.71042 12.0933 5.09785 12.3367 5.49135 12.2558L8.94135 11.5458C9.34706 11.4623 9.60826 11.0657 9.52477 10.66C9.44128 10.2543 9.0447 9.99305 8.63899 10.0765L7.03007 10.4077C7.79808 9.1159 8.73324 7.92911 9.81251 6.87858L9.82252 6.86866C12.0808 4.58633 14.7066 3.13529 17.0861 2.60574C19.4772 2.0736 21.5041 2.4865 22.759 3.74148C24.3409 5.3233 24.5921 8.1381 23.3143 11.2893C23.1587 11.6732 23.3437 12.1105 23.7276 12.2662C24.1114 12.4218 24.5488 12.2368 24.7044 11.853C26.0866 8.44419 26.0179 4.879 23.8197 2.68082Z" fill="#4C51F7"/>
<path d="M20.9356 9.19544C21.1183 9.28343 21.2576 9.44163 21.3217 9.63398L22.3217 12.634C22.4527 13.0269 22.2403 13.4517 21.8474 13.5827C21.4544 13.7137 21.0297 13.5013 20.8987 13.1083L20.5045 11.9257C19.64 13.4973 18.554 14.9378 17.2786 16.2026C14.8229 18.6578 11.9377 20.2707 9.23443 20.8708C6.5424 21.4684 3.91424 21.0766 2.16906 19.3314L2.1635 19.3259C-0.0252858 17.0908 -0.0998557 13.573 1.28435 10.1593C1.44 9.77543 1.87736 9.59043 2.26121 9.74608C2.64507 9.90173 2.83007 10.3391 2.67442 10.7229C1.39936 13.8674 1.64375 16.6483 3.23249 18.2736C4.48752 19.5262 6.51314 19.9384 8.90934 19.4064C11.2957 18.8767 13.935 17.4249 16.2191 15.1408L16.2213 15.1385C17.3993 13.9706 18.4018 12.6396 19.1987 11.1874L17.7583 11.7153C17.3694 11.8579 16.9386 11.6582 16.796 11.2693C16.6535 10.8804 16.8532 10.4495 17.2421 10.307L20.3521 9.16697C20.5424 9.09719 20.753 9.10746 20.9356 9.19544Z" fill="#4C51F7"/>
</svg>
